<mxfile host="app.diagrams.net" modified="2023-03-09T09:59:42.620Z" agent="5.0 (Macintosh; Intel Mac OS X 10_15_7) AppleWebKit/537.36 (KHTML, like Gecko) Chrome/110.0.0.0 Safari/537.36" etag="JO_3BAvqjiFuyVczHDfR" version="21.0.2" type="github">
  <diagram name="Page-1" id="9f46799a-70d6-7492-0946-bef42562c5a5">
    <mxGraphModel dx="954" dy="591" grid="1" gridSize="10" guides="1" tooltips="1" connect="1" arrows="1" fold="1" page="1" pageScale="1" pageWidth="1100" pageHeight="850" background="none" math="0" shadow="0">
      <root>
        <mxCell id="0" />
        <mxCell id="1" parent="0" />
        <mxCell id="Fz3hWTU8qWL8o5hhdhQv-1" value="Table" style="shape=table;startSize=30;container=1;collapsible=1;childLayout=tableLayout;fixedRows=1;rowLines=0;fontStyle=1;align=center;resizeLast=1;html=1;" vertex="1" parent="1">
          <mxGeometry x="400" y="230" width="180" height="150" as="geometry" />
        </mxCell>
        <mxCell id="Fz3hWTU8qWL8o5hhdhQv-2" value="" style="shape=tableRow;horizontal=0;startSize=0;swimlaneHead=0;swimlaneBody=0;fillColor=none;collapsible=0;dropTarget=0;points=[[0,0.5],[1,0.5]];portConstraint=eastwest;top=0;left=0;right=0;bottom=1;" vertex="1" parent="Fz3hWTU8qWL8o5hhdhQv-1">
          <mxGeometry y="30" width="180" height="30" as="geometry" />
        </mxCell>
        <mxCell id="Fz3hWTU8qWL8o5hhdhQv-3" value="PK" style="shape=partialRectangle;connectable=0;fillColor=none;top=0;left=0;bottom=0;right=0;fontStyle=1;overflow=hidden;whiteSpace=wrap;html=1;" vertex="1" parent="Fz3hWTU8qWL8o5hhdhQv-2">
          <mxGeometry width="30" height="30" as="geometry">
            <mxRectangle width="30" height="30" as="alternateBounds" />
          </mxGeometry>
        </mxCell>
        <mxCell id="Fz3hWTU8qWL8o5hhdhQv-4" value="UniqueID" style="shape=partialRectangle;connectable=0;fillColor=none;top=0;left=0;bottom=0;right=0;align=left;spacingLeft=6;fontStyle=5;overflow=hidden;whiteSpace=wrap;html=1;" vertex="1" parent="Fz3hWTU8qWL8o5hhdhQv-2">
          <mxGeometry x="30" width="150" height="30" as="geometry">
            <mxRectangle width="150" height="30" as="alternateBounds" />
          </mxGeometry>
        </mxCell>
        <mxCell id="Fz3hWTU8qWL8o5hhdhQv-5" value="" style="shape=tableRow;horizontal=0;startSize=0;swimlaneHead=0;swimlaneBody=0;fillColor=none;collapsible=0;dropTarget=0;points=[[0,0.5],[1,0.5]];portConstraint=eastwest;top=0;left=0;right=0;bottom=0;" vertex="1" parent="Fz3hWTU8qWL8o5hhdhQv-1">
          <mxGeometry y="60" width="180" height="30" as="geometry" />
        </mxCell>
        <mxCell id="Fz3hWTU8qWL8o5hhdhQv-6" value="" style="shape=partialRectangle;connectable=0;fillColor=none;top=0;left=0;bottom=0;right=0;editable=1;overflow=hidden;whiteSpace=wrap;html=1;" vertex="1" parent="Fz3hWTU8qWL8o5hhdhQv-5">
          <mxGeometry width="30" height="30" as="geometry">
            <mxRectangle width="30" height="30" as="alternateBounds" />
          </mxGeometry>
        </mxCell>
        <mxCell id="Fz3hWTU8qWL8o5hhdhQv-7" value="Row 1" style="shape=partialRectangle;connectable=0;fillColor=none;top=0;left=0;bottom=0;right=0;align=left;spacingLeft=6;overflow=hidden;whiteSpace=wrap;html=1;" vertex="1" parent="Fz3hWTU8qWL8o5hhdhQv-5">
          <mxGeometry x="30" width="150" height="30" as="geometry">
            <mxRectangle width="150" height="30" as="alternateBounds" />
          </mxGeometry>
        </mxCell>
        <mxCell id="Fz3hWTU8qWL8o5hhdhQv-8" value="" style="shape=tableRow;horizontal=0;startSize=0;swimlaneHead=0;swimlaneBody=0;fillColor=none;collapsible=0;dropTarget=0;points=[[0,0.5],[1,0.5]];portConstraint=eastwest;top=0;left=0;right=0;bottom=0;" vertex="1" parent="Fz3hWTU8qWL8o5hhdhQv-1">
          <mxGeometry y="90" width="180" height="30" as="geometry" />
        </mxCell>
        <mxCell id="Fz3hWTU8qWL8o5hhdhQv-9" value="" style="shape=partialRectangle;connectable=0;fillColor=none;top=0;left=0;bottom=0;right=0;editable=1;overflow=hidden;whiteSpace=wrap;html=1;" vertex="1" parent="Fz3hWTU8qWL8o5hhdhQv-8">
          <mxGeometry width="30" height="30" as="geometry">
            <mxRectangle width="30" height="30" as="alternateBounds" />
          </mxGeometry>
        </mxCell>
        <mxCell id="Fz3hWTU8qWL8o5hhdhQv-10" value="Row 2" style="shape=partialRectangle;connectable=0;fillColor=none;top=0;left=0;bottom=0;right=0;align=left;spacingLeft=6;overflow=hidden;whiteSpace=wrap;html=1;" vertex="1" parent="Fz3hWTU8qWL8o5hhdhQv-8">
          <mxGeometry x="30" width="150" height="30" as="geometry">
            <mxRectangle width="150" height="30" as="alternateBounds" />
          </mxGeometry>
        </mxCell>
        <mxCell id="Fz3hWTU8qWL8o5hhdhQv-11" value="" style="shape=tableRow;horizontal=0;startSize=0;swimlaneHead=0;swimlaneBody=0;fillColor=none;collapsible=0;dropTarget=0;points=[[0,0.5],[1,0.5]];portConstraint=eastwest;top=0;left=0;right=0;bottom=0;" vertex="1" parent="Fz3hWTU8qWL8o5hhdhQv-1">
          <mxGeometry y="120" width="180" height="30" as="geometry" />
        </mxCell>
        <mxCell id="Fz3hWTU8qWL8o5hhdhQv-12" value="" style="shape=partialRectangle;connectable=0;fillColor=none;top=0;left=0;bottom=0;right=0;editable=1;overflow=hidden;whiteSpace=wrap;html=1;" vertex="1" parent="Fz3hWTU8qWL8o5hhdhQv-11">
          <mxGeometry width="30" height="30" as="geometry">
            <mxRectangle width="30" height="30" as="alternateBounds" />
          </mxGeometry>
        </mxCell>
        <mxCell id="Fz3hWTU8qWL8o5hhdhQv-13" value="Row 3" style="shape=partialRectangle;connectable=0;fillColor=none;top=0;left=0;bottom=0;right=0;align=left;spacingLeft=6;overflow=hidden;whiteSpace=wrap;html=1;" vertex="1" parent="Fz3hWTU8qWL8o5hhdhQv-11">
          <mxGeometry x="30" width="150" height="30" as="geometry">
            <mxRectangle width="150" height="30" as="alternateBounds" />
          </mxGeometry>
        </mxCell>
        <mxCell id="Fz3hWTU8qWL8o5hhdhQv-14" value="&lt;u&gt;&lt;b&gt;VIRTUAL MODEL&lt;/b&gt;&lt;/u&gt;" style="text;html=1;align=center;verticalAlign=middle;resizable=0;points=[];autosize=1;strokeColor=none;fillColor=none;" vertex="1" parent="1">
          <mxGeometry x="30" y="45" width="120" height="30" as="geometry" />
        </mxCell>
        <mxCell id="Fz3hWTU8qWL8o5hhdhQv-15" value="&lt;b&gt;&lt;u&gt;PHYSICAL MODEL&lt;/u&gt;&lt;/b&gt;" style="text;html=1;align=center;verticalAlign=middle;resizable=0;points=[];autosize=1;strokeColor=none;fillColor=none;" vertex="1" parent="1">
          <mxGeometry x="15" y="445" width="130" height="30" as="geometry" />
        </mxCell>
        <mxCell id="Fz3hWTU8qWL8o5hhdhQv-16" value="&lt;div&gt;A logical data model explains the data in as much detail as&lt;/div&gt;&lt;div&gt;possible without having to worry about the database&#39;s physical&lt;/div&gt;&lt;div&gt;implementations. The following are some characteristics of a&lt;/div&gt;&lt;div&gt;logical data model:&lt;/div&gt;&lt;div&gt;&lt;br&gt;&lt;/div&gt;&lt;div&gt;● All of the entities and their connections.&lt;/div&gt;&lt;div&gt;● Each entity has well-defined characteristics.&lt;/div&gt;&lt;div&gt;● The primary key for each entity is specified.&lt;/div&gt;&lt;div&gt;● Foreign keys are defined as identifiers for relationships&lt;/div&gt;&lt;div&gt;between various entities.&lt;/div&gt;&lt;div&gt;● At this stage, normalisation takes place.&lt;/div&gt;" style="text;html=1;align=center;verticalAlign=middle;resizable=0;points=[];autosize=1;strokeColor=none;fillColor=none;" vertex="1" parent="1">
          <mxGeometry y="75" width="350" height="170" as="geometry" />
        </mxCell>
        <mxCell id="Fz3hWTU8qWL8o5hhdhQv-17" value="&lt;div&gt;A physical data model describes the approach or concept used to construct&lt;/div&gt;&lt;div&gt;the database. The fundamental goal of the physical data model is to display&lt;/div&gt;&lt;div&gt;all of the table&#39;s structures, including column names, column data types,&lt;/div&gt;&lt;div&gt;constraints, primary and foreign keys, and table relationships. The following&lt;/div&gt;&lt;div&gt;are some characteristics of a physical data model:&lt;/div&gt;&lt;div&gt;&lt;br&gt;&lt;/div&gt;&lt;div&gt;● All columns and tables are specified.&lt;/div&gt;&lt;div&gt;● Foreign keys are used to specify the relationship between tables.&lt;/div&gt;&lt;div&gt;● De-normalisation may develop as a result of user requirements.&lt;/div&gt;&lt;div&gt;● Because the physical considerations are taken into account, there will&lt;/div&gt;&lt;div&gt;be obvious reasons for differences when compared to a logical&lt;/div&gt;&lt;div&gt;model.&lt;/div&gt;&lt;div&gt;● Distinct databases may have different physical models.&lt;/div&gt;" style="text;html=1;align=center;verticalAlign=middle;resizable=0;points=[];autosize=1;strokeColor=none;fillColor=none;" vertex="1" parent="1">
          <mxGeometry x="20" y="475" width="420" height="200" as="geometry" />
        </mxCell>
      </root>
    </mxGraphModel>
  </diagram>
</mxfile>
